<svg width="32" height="32" viewBox="0 0 32 32" fill="none" xmlns="http://www.w3.org/2000/svg">
<path d="M23.2249 0C28.7431 0 32 3.52817 32 9.56765H25.2302V9.62927C22.0883 9.62927 19.5413 12.3884 19.5413 15.792C19.5413 19.1956 22.0883 21.9547 25.2302 21.9547H32V22.5094C32 28.4718 28.7431 32 23.2249 32H8.77511C3.25689 32 0 28.4718 0 22.5094V9.49061C0 3.52817 3.25689 0 8.77511 0H23.2249ZM30.8053 12.2176C31.4651 12.2176 32 12.797 32 13.5118V18.0106C31.9923 18.7219 31.4619 19.2964 30.8053 19.3048H25.3582C23.7676 19.328 22.3768 18.1482 22.016 16.4699C21.8353 15.4281 22.089 14.353 22.7089 13.5328C23.3289 12.7127 24.2518 12.2312 25.2302 12.2176H30.8053ZM25.9982 14.2975H25.472C25.1489 14.2934 24.8378 14.4296 24.608 14.6756C24.3782 14.9217 24.2489 15.2571 24.2489 15.6071C24.2488 16.3414 24.7942 16.9391 25.472 16.9475H25.9982C26.6737 16.9475 27.2213 16.3543 27.2213 15.6225C27.2213 14.8908 26.6737 14.2975 25.9982 14.2975ZM16.6116 6.91767H7.58044C6.91045 6.91762 6.36512 7.5015 6.35733 8.22725C6.35733 8.96156 6.90264 9.55921 7.58044 9.56765H16.6116C17.2871 9.56765 17.8347 8.97443 17.8347 8.24266C17.8347 7.51089 17.2871 6.91767 16.6116 6.91767Z" fill="white"/>
</svg>
